# xmcd
#
# Track frame offsets:
#	150
#	9088
#	18555
#	26529
#	33492
#	41606
#	53884
#	64709
#	73746
#	90665
#
# Disc length: 1329 seconds
#
# Revision: 1
# Processed by: cddbd v1.4PL0 Copyright (c) Steve Scherf et al.
# Submitted via: audiograbber 1.82.02
#
DISCID=79052f0a
DTITLE=The Higgins - Coming Home For Christmas
DYEAR=2003
DGENRE=Country
TTITLE0=Winter Wonderland
TTITLE1=Rockin' Around The Christmas Tree
TTITLE2=Joy To The World
TTITLE3=The Holly And The Ivy
TTITLE4=Let It Snow
TTITLE5=Silent Night
TTITLE6=Go Tell It On The Mountain
TTITLE7=Once In Royal David's City
TTITLE8=Oh Holy Night
TTITLE9=White Christmas
EXTD=
EXTT0=
EXTT1=
EXTT2=
EXTT3=
EXTT4=
EXTT5=
EXTT6=
EXTT7=
EXTT8=
EXTT9=
PLAYORDER=
